# xmcd CD database file
#
# Track frame offsets:
#	150
#	27043
#	40149
#	63701
#	92232
#	101786
#	131814
#	152772
#	169917
#	190478
#	212758
#
# Disc length: 2928 seconds
#
# Revision: 0
# Processed by: cddbd v1.5.2PL0 Copyright (c) Steve Scherf et al.
# Submitted via: CDex 1.51
#
DISCID=9f0b6e0b
DTITLE=Celea - Couturier - Humair - Tryptic
DYEAR=2007
DGENRE=Jazz
TTITLE0=Adagietto
TTITLE1=Canticle with response
TTITLE2=Lucretia
TTITLE3=Good mood
TTITLE4=Instant
TTITLE5=Inki
TTITLE6=Ludwig
TTITLE7=Tarquinius
TTITLE8=Cavatina
TTITLE9=Dramadrôme
TTITLE10=Canticle with response
EXTD=YEAR: 2007
EXTT0=
EXTT1=
EXTT2=
EXTT3=
EXTT4=
EXTT5=
EXTT6=
EXTT7=
EXTT8=
EXTT9=
EXTT10=
PLAYORDER=
